<?xml version="1.0" encoding="UTF-8" standalone="no"?>
<!-- Created with Inkscape (http://www.inkscape.org/) -->

<svg
   xmlns:dc="http://purl.org/dc/elements/1.1/"
   xmlns:cc="http://creativecommons.org/ns#"
   xmlns:rdf="http://www.w3.org/1999/02/22-rdf-syntax-ns#"
   xmlns:svg="http://www.w3.org/2000/svg"
   xmlns="http://www.w3.org/2000/svg"
   xmlns:sodipodi="http://sodipodi.sourceforge.net/DTD/sodipodi-0.dtd"
   xmlns:inkscape="http://www.inkscape.org/namespaces/inkscape"
   width="256"
   height="256"
   viewBox="0 0 256 256"
   id="svg8802"
   version="1.1"
   inkscape:version="0.91 r13725"
   sodipodi:docname="Icon.svg"
   inkscape:export-filename="/home/raymond/Clients/Ultimate Sticky Posts/Ultimate Posts Slider/UPS-Icon.png"
   inkscape:export-xdpi="90"
   inkscape:export-ydpi="90">
  <defs
     id="defs8804" />
  <sodipodi:namedview
     id="base"
     pagecolor="#ffffff"
     bordercolor="#666666"
     borderopacity="1.0"
     inkscape:pageopacity="0.0"
     inkscape:pageshadow="2"
     inkscape:zoom="1.7949219"
     inkscape:cx="43.974733"
     inkscape:cy="105.11394"
     inkscape:document-units="px"
     inkscape:current-layer="layer1"
     showgrid="false"
     units="px"
     inkscape:window-width="1865"
     inkscape:window-height="1056"
     inkscape:window-x="1421"
     inkscape:window-y="24"
     inkscape:window-maximized="1"
     borderlayer="true" />
  <metadata
     id="metadata8807">
    <rdf:RDF>
      <cc:Work
         rdf:about="">
        <dc:format>image/svg+xml</dc:format>
        <dc:type
           rdf:resource="http://purl.org/dc/dcmitype/StillImage" />
        <dc:title></dc:title>
      </cc:Work>
    </rdf:RDF>
  </metadata>
  <g
     inkscape:label="Layer 1"
     inkscape:groupmode="layer"
     id="layer1"
     transform="translate(0,-796.36216)">
    <rect
       style="opacity:1;fill:#220055;fill-opacity:1;stroke:none;stroke-width:4;stroke-linecap:round;stroke-linejoin:round;stroke-miterlimit:4;stroke-dasharray:none;stroke-dashoffset:0;stroke-opacity:0"
       id="rect9433"
       width="256"
       height="256"
       x="0"
       y="796.36218" />
    <g
       id="g4156"
       transform="translate(286.22415,6.2676804)">
      <g
         transform="translate(-286.22415,-6.2676701)"
         id="g9497">
        <path
           d="m 208.68071,859.65214 c -0.0591,-2.5755 -1.90438,-4.7971 -4.48173,-5.14915 -12.01346,-1.64998 -23.86172,-4.52052 -35.47641,-8.77449 -11.5598,-4.23365 -24.35022,-10.14366 -38.14561,-17.92743 -1.75157,-0.98888 -3.39916,-0.99495 -5.14889,0 -13.69985,7.7798 -26.398689,13.67741 -38.049804,17.92743 -11.618391,4.23787 -23.460841,7.12663 -35.378769,8.77449 -2.577614,0.35601 -4.386191,2.57365 -4.673061,5.14915 -1.14326,48.92001 9.572028,88.9473 32.042414,120.0618 12.241218,16.94885 27.56043,30.70576 46.05922,41.19536 1.43013,1.0498 3.67231,0.9704 5.34023,0 18.35866,-10.6646 33.65754,-24.32176 45.87053,-41.19536 22.50021,-31.09418 33.12813,-71.13993 32.04188,-120.0618 z"
           id="path9455-5"
           style="fill:#7f2aff"
           inkscape:connector-curvature="0" />
        <path
           style="opacity:0.5;fill:#4400aa"
           d="m 128.39104,827.08545 0,194.55185 c 0.82516,-0.066 1.65448,-0.3083 2.37681,-0.7286 18.35866,-10.6647 33.65829,-24.32034 45.87127,-41.194 22.50021,-31.09418 33.1274,-71.14078 32.04115,-120.06264 -0.0591,-2.5755 -1.90439,-4.79719 -4.48174,-5.14925 -12.01345,-1.64997 -23.86183,-4.52007 -35.47652,-8.77404 -11.55979,-4.23366 -24.34971,-10.14468 -38.14509,-17.92844 -0.74223,-0.41903 -1.46532,-0.65017 -2.18588,-0.71488 z"
           id="path9457-5"
           inkscape:connector-curvature="0" />
        <g
           style="font-style:normal;font-weight:normal;font-size:68.06821442px;line-height:125%;font-family:sans-serif;letter-spacing:0px;word-spacing:0px;fill:#222b00;fill-opacity:1;stroke:none;stroke-width:1px;stroke-linecap:butt;stroke-linejoin:miter;stroke-opacity:1"
           id="text9369-8"
           transform="matrix(0.78208745,0,0,0.78208745,27.892806,201.43011)" />
      </g>
      <text
         sodipodi:linespacing="125%"
         id="text4141"
         y="904.82831"
         x="-219.31516"
         style="font-style:normal;font-weight:normal;font-size:52.79088974px;line-height:125%;font-family:sans-serif;letter-spacing:0px;word-spacing:0px;fill:#220055;fill-opacity:1;stroke:none;stroke-width:1px;stroke-linecap:butt;stroke-linejoin:miter;stroke-opacity:1"
         xml:space="preserve"><tspan
           style="font-style:normal;font-variant:normal;font-weight:normal;font-stretch:normal;font-family:'Arial Black';-inkscape-font-specification:'Arial Black, ';fill:#220055;fill-opacity:1"
           y="904.82831"
           x="-219.31516"
           id="tspan4143"
           sodipodi:role="line">UPS</tspan></text>
    </g>
  </g>
</svg>
